<svg width="20" height="19" viewBox="0 0 20 19" fill="none" xmlns="http://www.w3.org/2000/svg">
<path d="M17.4513 2.50292C17.0158 2.02645 16.4986 1.64848 15.9294 1.39061C15.3602 1.13273 14.7501 1 14.134 1C13.5179 1 12.9078 1.13273 12.3386 1.39061C11.7694 1.64848 11.2522 2.02645 10.8167 2.50292L9.91271 3.4913L9.00876 2.50292C8.12895 1.54094 6.93567 1.0005 5.69142 1.0005C4.44718 1.0005 3.2539 1.54094 2.37409 2.50292C1.49427 3.46491 1 4.76964 1 6.1301C1 7.49055 1.49427 8.79528 2.37409 9.75727L3.27804 10.7457L9.91271 18L16.5474 10.7457L17.4513 9.75727C17.8871 9.28102 18.2328 8.71557 18.4686 8.0932C18.7045 7.47084 18.8259 6.80377 18.8259 6.1301C18.8259 5.45642 18.7045 4.78935 18.4686 4.16699C18.2328 3.54463 17.8871 2.97917 17.4513 2.50292Z" fill="#FF235B" stroke="#FF2D55" stroke-linecap="round" stroke-linejoin="round"/>
</svg>
