<svg width="14" height="15" viewBox="0 0 14 15" fill="none" xmlns="http://www.w3.org/2000/svg">
<path d="M13.0476 8.16345C12.9421 9.40897 12.5136 10.596 11.8123 11.5855C11.111 12.5751 10.1658 13.3263 9.0874 13.7512C8.009 14.1761 6.84197 14.2572 5.72286 13.985C4.60375 13.7128 3.57885 13.0985 2.76809 12.214C1.95732 11.3296 1.39423 10.2115 1.14469 8.99065C0.895158 7.7698 0.969503 6.49667 1.35903 5.32024C1.74855 4.1438 2.43715 3.11272 3.34424 2.34763C4.25133 1.58254 5.3394 1.1151 6.48112 1C5.81268 1.98654 5.49102 3.20205 5.57465 4.42544C5.65828 5.64884 6.14164 6.79885 6.93682 7.66633C7.73201 8.5338 8.78619 9.0611 9.90763 9.15234C11.0291 9.24357 12.1433 8.89266 13.0476 8.16345Z" fill="#6066FA" stroke="#8E93FF" stroke-width="1.12491" stroke-linecap="round" stroke-linejoin="round"/>
</svg>
